<svg width="64" height="64" viewBox="0 0 64 64" fill="none" xmlns="http://www.w3.org/2000/svg">
<path d="M11.811 35.1399H44.3474V61.1711H11.811V35.1399Z" stroke="currentColor" stroke-width="1.25" stroke-miterlimit="10" stroke-linecap="round" stroke-linejoin="round"/>
<path d="M52.189 53.3318V27.2993H34.7197" stroke="currentColor" stroke-width="1.25" stroke-miterlimit="10" stroke-linecap="round" stroke-linejoin="round"/>
<path d="M19.6538 35.1393V27.2993H28.8761" stroke="currentColor" stroke-width="1.25" stroke-miterlimit="10" stroke-linecap="round" stroke-linejoin="round"/>
<path d="M19.6528 27.2993L11.8105 35.1394" stroke="currentColor" stroke-width="1.25" stroke-miterlimit="10" stroke-linecap="round" stroke-linejoin="round"/>
<path d="M52.1891 27.2993L44.3467 35.1394" stroke="currentColor" stroke-width="1.25" stroke-miterlimit="10" stroke-linecap="round" stroke-linejoin="round"/>
<path d="M52.1891 53.3311L44.3467 61.1713" stroke="currentColor" stroke-width="1.25" stroke-miterlimit="10" stroke-linecap="round" stroke-linejoin="round"/>
<path d="M22.5894 61.1712V51.4243L28.0801 54.7197L33.5697 51.4243V61.1712" stroke="currentColor" stroke-width="1.25" stroke-miterlimit="10" stroke-linecap="round" stroke-linejoin="round"/>
<path d="M39.819 18.321L31.8752 32.3075L23.931 18.321C22.7734 16.7146 22.0923 14.7419 22.0923 12.6104C22.0923 7.20738 26.4715 2.82812 31.8748 2.82812C37.2777 2.82812 41.6585 7.20738 41.6585 12.6104C41.6585 14.7419 40.9759 16.7145 39.8197 18.321" stroke="currentColor" stroke-width="1.25" stroke-miterlimit="10" stroke-linecap="round" stroke-linejoin="round"/>
<path d="M31.8751 18.1262C34.7863 18.1262 37.1463 15.7663 37.1463 12.8551C37.1463 9.94395 34.7863 7.58398 31.8751 7.58398C28.964 7.58398 26.604 9.94395 26.604 12.8551C26.604 15.7663 28.964 18.1262 31.8751 18.1262Z" stroke="currentColor" stroke-width="1.25" stroke-miterlimit="10" stroke-linecap="round" stroke-linejoin="round"/>
</svg>
